<svg xmlns="http://www.w3.org/2000/svg" viewBox="0 0 24 24" fill="none" stroke="currentColor" stroke-width="2">
  <circle cx="12" cy="12" r="3"></circle>
  <path d="M19.4 15a1.65 1.65 0 0 0 .33 1.82l.06.06a2 2 0 1 1-2.828 2.828l-.06-.06a1.65 1.65 0 0 0-1.82-.33 1.65 1.65 0 0 0-1 . 2l-.06 .06a2 2 0 1 1-2.828-2.828l.06-.06a1.65 1.65 0 0 0 .33-1.82 1.65 1.65 0 0 0-1-.33h-.12a2 2 0 1 1 0-4h.12a1.65 1.65 0 0 0 1-.33 1.65 1.65 0 0 0 .33-1.82l-.06-.06a2 2 0 1 1 2.828-2.828l.06.06a1.65 1.65 0 0 0 1.82.33h.12a1.65 1.65 0 0 0 1 .33h.12a2 2 0 1 1 0 4h-.12a1.65 1.65 0 0 0-1 .33z"></path>
</svg>
